<?xml version="1.0" encoding="UTF-8"?>
<svg version="1.1" xmlns="http://www.w3.org/2000/svg" width="256" height="256">
<path d="M0 0 C5.8154034 3.0697914 11.45017075 6.4445792 17.09375 9.81640625 C19.01512326 10.93669318 20.93829648 12.0538989 22.86328125 13.16796875 C26.83578639 15.47024255 30.79951919 17.78666292 34.7578125 20.11328125 C40.91639231 23.72461529 47.11152516 27.27005157 53.31509399 30.80322266 C63.07125731 36.3606686 72.8165335 41.93676084 82.53125 47.56640625 C83.52576172 48.13875 84.52027344 48.71109375 85.54492188 49.30078125 C99.06331397 57.16053123 99.06331397 57.16053123 102.09375 65.81640625 C102.65239836 69.75456342 102.64109069 73.64064567 102.61132812 77.61328125 C102.6183374 78.77202759 102.62534668 79.93077393 102.63256836 81.12463379 C102.65011261 84.93880476 102.63853734 88.75222828 102.625 92.56640625 C102.62769592 95.22624629 102.63157358 97.88606399 102.63659668 100.54589844 C102.64385714 106.11401401 102.63432779 111.68191679 102.61523438 117.25 C102.59346844 123.6712741 102.60052097 130.09204005 102.62254 136.51330185 C102.64074001 142.04394733 102.64322999 147.57444057 102.63278532 153.10510635 C102.62657547 156.40069515 102.62723455 159.69599518 102.63893127 162.99157715 C102.6491166 166.66790874 102.63356589 170.3432716 102.61132812 174.01953125 C102.61942505 175.10028931 102.62752197 176.18104736 102.63586426 177.29455566 C102.56194856 183.90763457 101.52061341 188.13409313 98.09375 193.81640625 C97.43375 193.81640625 96.77375 193.81640625 96.09375 193.81640625 C96.09375 194.47640625 96.09375 195.13640625 96.09375 195.81640625 C94.59106445 196.95458984 94.59106445 196.95458984 92.45703125 198.21484375 C91.66329102 198.68776855 90.86955078 199.16069336 90.05175781 199.64794922 C89.17874023 200.15729004 88.30572266 200.66663086 87.40625 201.19140625 C86.50358398 201.72523926 85.60091797 202.25907227 84.67089844 202.80908203 C77.56626984 206.99543098 70.41262098 211.09654822 63.2421875 215.16894531 C56.43105239 219.03845248 49.66456947 222.98050014 42.90625 226.94140625 C34.43262282 231.90146296 25.91060705 236.75479878 17.30859375 241.48828125 C14.37267553 243.10403068 11.44996675 244.74100258 8.53515625 246.39453125 C7.79910156 246.81178467 7.06304687 247.22903809 6.3046875 247.65893555 C4.91158306 248.44999724 3.51958447 249.24301085 2.12890625 250.03833008 C-4.68497121 253.90218897 -10.12374214 254.93066098 -17.90625 253.81640625 C-23.57110781 251.75705608 -28.68170522 248.79851036 -33.90625 245.81640625 C-34.93411621 245.23697266 -35.96198242 244.65753906 -37.02099609 244.06054688 C-43.60958411 240.34434458 -50.17451495 236.58877232 -56.72492981 232.80574036 C-61.27045668 230.1807357 -65.8260854 227.57398735 -70.38671875 224.9753418 C-74.56340308 222.59515302 -78.73504322 220.20617759 -82.90625 217.81640625 C-83.71352539 217.35427734 -84.52080078 216.89214844 -85.35253906 216.41601562 C-90.09751872 213.69644813 -94.83048411 210.95757043 -99.54931641 208.19287109 C-101.16310225 207.25040946 -102.78013812 206.31349707 -104.39990234 205.38134766 C-106.86928298 203.95775475 -109.32612572 202.51441574 -111.78125 201.06640625 C-112.52463623 200.64286865 -113.26802246 200.21933105 -114.03393555 199.78295898 C-119.84932487 196.30822862 -123.70622587 192.41647863 -125.90625 185.81640625 C-126.00407487 184.19775255 -126.04547184 182.57539924 -126.05342102 180.95381165 C-126.06057632 179.95155045 -126.06773163 178.94928925 -126.07510376 177.91665649 C-126.07779266 176.81792206 -126.08048157 175.71918762 -126.08325195 174.5871582 C-126.08982315 173.429142 -126.09639435 172.27112579 -126.10316467 171.07801819 C-126.12291217 167.23690733 -126.13456389 163.39583561 -126.14453125 159.5546875 C-126.14860678 158.24351645 -126.1526823 156.93234539 -126.15688133 155.58144188 C-126.17593015 149.35681394 -126.19016028 143.13219782 -126.1984933 136.90754634 C-126.20825671 129.73364271 -126.23455365 122.56004836 -126.27499419 115.38625365 C-126.30521123 109.83451913 -126.31996755 104.28287295 -126.32327431 98.73105782 C-126.32561901 95.41856712 -126.33649204 92.1064814 -126.35973549 88.79406166 C-126.3840884 85.09333341 -126.38316821 81.39341084 -126.3762207 77.69262695 C-126.39543579 76.05970703 -126.39543579 76.05970703 -126.41503906 74.39379883 C-126.36960593 67.74379207 -125.43741428 63.49169338 -121.90625 57.81640625 C-119.69726562 55.71484375 -119.69726562 55.71484375 -117.3125 54.19140625 C-116.43078125 53.62164062 -115.5490625 53.051875 -114.640625 52.46484375 C-110.27195623 49.83116058 -105.87303958 47.28025726 -101.40625 44.81640625 C-99.37310418 43.6807498 -97.34057567 42.54398766 -95.30859375 41.40625 C-94.25913574 40.81956543 -93.20967773 40.23288086 -92.12841797 39.62841797 C-86.71835115 36.58602398 -81.3429026 33.48417792 -75.96875 30.37890625 C-74.88658203 29.75411377 -73.80441406 29.12932129 -72.68945312 28.4855957 C-66.26610376 24.77227618 -59.85640291 21.03623515 -53.45361328 17.28759766 C-45.20414714 12.4589965 -36.9421961 7.659836 -28.59375 3.00390625 C-27.85253906 2.58906982 -27.11132812 2.1742334 -26.34765625 1.74682617 C-17.3971 -3.20809797 -9.37081961 -4.54260604 0 0 Z M-61.90625 68.81640625 C-61.90625 69.47640625 -61.90625 70.13640625 -61.90625 70.81640625 C-62.47859375 71.05101563 -63.0509375 71.285625 -63.640625 71.52734375 C-74.60043983 77.76310046 -81.35288121 94.06045905 -84.8815918 105.62426758 C-90.31531549 125.73840067 -86.95094355 146.03726279 -77.109375 164.1171875 C-66.00062472 183.3891861 -48.748992 193.942739 -27.90625 199.81640625 C-14.74647073 203.31860557 0.49699607 201.28906044 13.09375 196.81640625 C14.14949219 196.45417969 15.20523438 196.09195313 16.29296875 195.71875 C23.78840011 192.88756914 29.84566481 188.78131439 36.09375 183.81640625 C36.92777344 183.18605469 37.76179688 182.55570313 38.62109375 181.90625 C41.3290217 179.61755892 43.4795226 177.18849965 45.71875 174.44140625 C46.47414062 173.52617187 47.22953125 172.6109375 48.0078125 171.66796875 C50.08548991 168.82769813 51.61740845 166.00417559 53.09375 162.81640625 C51.95679688 162.18734375 50.81984375 161.55828125 49.6484375 160.91015625 C40.08970732 155.61452416 30.56474399 150.26755713 21.09375 144.81640625 C20.536875 145.48027344 19.98 146.14414063 19.40625 146.828125 C11.294178 156.21455967 3.54763557 161.85220399 -9.046875 163.13671875 C-20.23561118 163.53442264 -30.40608556 160.25405013 -38.90625 152.81640625 C-46.81118237 143.78219783 -49.65709682 133.29495363 -49.28515625 121.46484375 C-48.22080467 111.21634506 -43.68196154 103.37872943 -36.3203125 96.2890625 C-28.36800397 89.9078198 -18.2408676 88.10504774 -8.296875 88.43359375 C0.91743002 89.47391851 10.61820955 93.60717065 16.76171875 100.7578125 C17.94281015 102.39546024 19.02979278 104.10034622 20.09375 105.81640625 C24.3788848 104.52000633 28.01140395 102.87408886 31.859375 100.59375 C32.91382813 99.97306641 33.96828125 99.35238281 35.0546875 98.71289062 C36.14007813 98.06642578 37.22546875 97.41996094 38.34375 96.75390625 C40.51541404 95.47099699 42.68727869 94.18842724 44.859375 92.90625 C45.81618164 92.33769287 46.77298828 91.76913574 47.75878906 91.18334961 C49.17957929 90.35158419 50.62120701 89.55267775 52.09375 88.81640625 C51.63970889 84.00891218 49.34233151 81.10120783 46.28125 77.56640625 C45.78987549 76.99647949 45.29850098 76.42655273 44.79223633 75.83935547 C31.98515818 61.44076927 13.38026273 51.59506902 -5.9609375 50.4375 C-26.38061247 49.73330887 -46.26685684 55.13193723 -61.90625 68.81640625 Z M55.09375 107.81640625 C55.09375 110.12640625 55.09375 112.43640625 55.09375 114.81640625 C53.11375 114.81640625 51.13375 114.81640625 49.09375 114.81640625 C49.09375 116.79640625 49.09375 118.77640625 49.09375 120.81640625 C51.07375 120.81640625 53.05375 120.81640625 55.09375 120.81640625 C55.09375 124.11640625 55.09375 127.41640625 55.09375 130.81640625 C53.11375 130.81640625 51.13375 130.81640625 49.09375 130.81640625 C49.09375 133.12640625 49.09375 135.43640625 49.09375 137.81640625 C51.07375 137.81640625 53.05375 137.81640625 55.09375 137.81640625 C55.09375 139.79640625 55.09375 141.77640625 55.09375 143.81640625 C57.40375 143.81640625 59.71375 143.81640625 62.09375 143.81640625 C62.09375 141.83640625 62.09375 139.85640625 62.09375 137.81640625 C65.39375 137.81640625 68.69375 137.81640625 72.09375 137.81640625 C72.09375 139.79640625 72.09375 141.77640625 72.09375 143.81640625 C74.40375 143.81640625 76.71375 143.81640625 79.09375 143.81640625 C79.09375 141.83640625 79.09375 139.85640625 79.09375 137.81640625 C81.07375 137.81640625 83.05375 137.81640625 85.09375 137.81640625 C85.09375 135.50640625 85.09375 133.19640625 85.09375 130.81640625 C83.11375 130.81640625 81.13375 130.81640625 79.09375 130.81640625 C79.09375 127.51640625 79.09375 124.21640625 79.09375 120.81640625 C81.07375 120.81640625 83.05375 120.81640625 85.09375 120.81640625 C85.09375 118.83640625 85.09375 116.85640625 85.09375 114.81640625 C83.11375 114.81640625 81.13375 114.81640625 79.09375 114.81640625 C79.09375 112.50640625 79.09375 110.19640625 79.09375 107.81640625 C76.78375 107.81640625 74.47375 107.81640625 72.09375 107.81640625 C72.09375 110.12640625 72.09375 112.43640625 72.09375 114.81640625 C68.79375 114.81640625 65.49375 114.81640625 62.09375 114.81640625 C62.09375 112.50640625 62.09375 110.19640625 62.09375 107.81640625 C59.78375 107.81640625 57.47375 107.81640625 55.09375 107.81640625 Z " fill="#000000" transform="translate(139.90625,2.18359375)"/>
<path d="M0 0 C3.3 0 6.6 0 10 0 C10 3.3 10 6.6 10 10 C6.7 10 3.4 10 0 10 C0 6.7 0 3.4 0 0 Z " fill="#010101" transform="translate(202,123)"/>
</svg>
